<mxfile host="app.diagrams.net" agent="Mozilla/5.0 (Windows NT 10.0; Win64; x64) AppleWebKit/537.36 (KHTML, like Gecko) Chrome/140.0.0.0 Safari/537.36" version="28.2.5">
  <diagram name="Page-1" id="uiE4c2LsK8ZdXOrGPtIN">
    <mxGraphModel dx="1042" dy="570" grid="1" gridSize="10" guides="1" tooltips="1" connect="1" arrows="1" fold="1" page="1" pageScale="1" pageWidth="827" pageHeight="1169" math="0" shadow="0">
      <root>
        <mxCell id="0" />
        <mxCell id="1" parent="0" />
        <mxCell id="RWcylNodCYkMwrku70u5-1" value="JBoss 1" style="verticalAlign=top;align=left;spacingTop=8;spacingLeft=2;spacingRight=12;shape=cube;size=10;direction=south;fontStyle=4;html=1;whiteSpace=wrap;" vertex="1" parent="1">
          <mxGeometry x="60" y="40" width="180" height="120" as="geometry" />
        </mxCell>
        <mxCell id="RWcylNodCYkMwrku70u5-2" value="JBoss 2" style="verticalAlign=top;align=left;spacingTop=8;spacingLeft=2;spacingRight=12;shape=cube;size=10;direction=south;fontStyle=4;html=1;whiteSpace=wrap;" vertex="1" parent="1">
          <mxGeometry x="290" y="40" width="180" height="120" as="geometry" />
        </mxCell>
        <mxCell id="RWcylNodCYkMwrku70u5-3" value="&amp;lt;&amp;lt;HW Databázový server&amp;gt;&amp;gt;" style="verticalAlign=top;align=center;spacingTop=8;spacingLeft=2;spacingRight=12;shape=cube;size=10;direction=south;fontStyle=4;html=1;whiteSpace=wrap;" vertex="1" parent="1">
          <mxGeometry x="530" y="50" width="250" height="430" as="geometry" />
        </mxCell>
        <mxCell id="RWcylNodCYkMwrku70u5-4" value="sample" style="verticalAlign=top;align=center;spacingTop=8;spacingLeft=2;spacingRight=12;shape=cube;size=10;direction=south;fontStyle=4;html=1;whiteSpace=wrap;" vertex="1" parent="1">
          <mxGeometry x="10" y="390" width="200" height="150" as="geometry" />
        </mxCell>
        <mxCell id="RWcylNodCYkMwrku70u5-5" value="&amp;lt;&amp;lt;Databázovy server&amp;gt;&amp;gt;" style="verticalAlign=top;align=center;spacingTop=8;spacingLeft=2;spacingRight=12;shape=cube;size=10;direction=south;fontStyle=4;html=1;whiteSpace=wrap;" vertex="1" parent="1">
          <mxGeometry x="550" y="100" width="200" height="140" as="geometry" />
        </mxCell>
        <mxCell id="RWcylNodCYkMwrku70u5-8" value="«Databáza»&lt;br&gt;&lt;b&gt;Component&lt;/b&gt;" style="html=1;dropTarget=0;whiteSpace=wrap;" vertex="1" parent="1">
          <mxGeometry x="560" y="140" width="170" height="90" as="geometry" />
        </mxCell>
        <mxCell id="RWcylNodCYkMwrku70u5-9" value="" style="shape=module;jettyWidth=8;jettyHeight=4;" vertex="1" parent="RWcylNodCYkMwrku70u5-8">
          <mxGeometry x="1" width="20" height="20" relative="1" as="geometry">
            <mxPoint x="-27" y="7" as="offset" />
          </mxGeometry>
        </mxCell>
        <mxCell id="RWcylNodCYkMwrku70u5-11" value="&amp;lt;&amp;lt;Zariadenie klienta&amp;gt;&amp;gt;" style="verticalAlign=top;align=center;spacingTop=8;spacingLeft=2;spacingRight=12;shape=cube;size=10;direction=south;fontStyle=4;html=1;whiteSpace=wrap;" vertex="1" parent="1">
          <mxGeometry x="40" y="200" width="200" height="150" as="geometry" />
        </mxCell>
        <mxCell id="RWcylNodCYkMwrku70u5-12" value="«Prehliadač»" style="html=1;dropTarget=0;whiteSpace=wrap;" vertex="1" parent="1">
          <mxGeometry x="60" y="240" width="150" height="90" as="geometry" />
        </mxCell>
      </root>
    </mxGraphModel>
  </diagram>
</mxfile>
